<svg xmlns="http://www.w3.org/2000/svg" viewBox="0 0 226.23 149.67">
    <title>Valorant logo - Brandlogos.net</title>
    <path d="M324.59,309.28c.69-.41,1.14.42,1.51.86q36.11,45.18,72.25,90.33a.72.72,0,0,1-.55,1.25q-17.29,0-34.58,0a3,3,0,0,1-2.37-1.17L325,355.72a3.18,3.18,0,0,1-.74-2.17q0-21.65,0-43.31C324.24,309.9,324.22,309.46,324.59,309.28Z" transform="translate(-270.88 -309.17)" style="fill:#ff4655"/>
    <path d="M435.93,309.21a.74.74,0,0,1,1,.79q0,21.66,0,43.33a3.38,3.38,0,0,1-.68,2.31l-10.91,13.64a3.09,3.09,0,0,1-2.59,1.17c-11.45,0-22.9,0-34.35,0a.72.72,0,0,1-.56-1.25q23.82-29.8,47.66-59.58A1.19,1.19,0,0,1,435.93,309.21Z" transform="translate(-270.88 -309.17)" style="fill:#ff4655"/>
</svg>